<?xml version="1.0" encoding="UTF-8"?>
<svg id="Layer_1" data-name="Layer 1" xmlns="http://www.w3.org/2000/svg" viewBox="0 0 2459.8 1920">
  <defs>
    <style>
      .cls-1 {
        stroke-dasharray: 0 0 22.8 22.8;
      }

      .cls-1, .cls-2, .cls-3 {
        stroke-miterlimit: 10;
      }

      .cls-1, .cls-3 {
        fill: none;
        stroke: #86afa3;
        stroke-linecap: round;
        stroke-width: 9px;
      }

      .cls-2 {
        fill: #9ebfb6;
        stroke: #6e9f91;
        stroke-width: 4px;
      }

      .cls-4 {
        fill: #86afa3;
      }

      .cls-4, .cls-5, .cls-6, .cls-7 {
        stroke-width: 0px;
      }

      .cls-5 {
        fill: #6e9f91;
      }

      .cls-6 {
        fill: #3d7f6d;
      }

      .cls-7 {
        fill: #cfdfda;
      }
    </style>
  </defs>
  <rect class="cls-7" x="146.8" y="528.5" width="450.2" height="88.8" rx="44.4" ry="44.4"/>
  <path class="cls-7" d="m720.3,730.7v-33.2c0-35.8-29-64.9-64.9-64.9H88.2c-35.8,0-64.9,29-64.9,64.9v33.2c0,35.8,29,64.9,64.9,64.9h0c32.4,0,58.7,26.3,58.7,58.7v16.6c0,23.3-18.9,42.1-42.1,42.1h0c-45,0-81.4,36.5-81.4,81.4h0c0,45,36.5,81.4,81.4,81.4h534.1c45,0,81.4-36.5,81.4-81.4h0c0-45-36.5-81.4-81.4-81.4h0c-23.3,0-42.1-18.9-42.1-42.1v-16.6c0-32.4,26.3-58.7,58.7-58.7h0c35.8,0,64.9-29,64.9-64.9Z"/>
  <g>
    <polyline class="cls-3" points="375.6 572.9 387.1 572.9 395.1 581.2"/>
    <path class="cls-1" d="m411,597.5l53.5,54.8v314.7c0,21.2-16.7,38.3-37.3,38.3H135.2c-20.6,0-37.3-17.1-37.3-38.3v-355.7c0-21.2,16.7-38.3,37.3-38.3h229"/>
  </g>
  <path class="cls-5" d="m527,1005l-24.8,21.8-26.5-30.3c9.1-6.3,17.5-13.4,25.2-21.3l26.2,29.9Z"/>
  <path class="cls-2" d="m377.1,681.2c-95.4,0-173.1,77.7-173.1,173.1s77.6,173.1,173.1,173.1,70.6-11.4,98.6-30.9c9.1-6.3,17.5-13.4,25.2-21.3,30.5-31.2,49.3-73.9,49.3-120.9,0-95.5-77.7-173.1-173.1-173.1Zm0,313.2c-77.2,0-140.1-62.8-140.1-140.1s62.8-140.1,140.1-140.1,140.1,62.9,140.1,140.1-62.8,140.1-140.1,140.1Z"/>
  <path class="cls-6" d="m651.5,1141.7l-30.1,26.4c-5.4,4.7-13.6,4.2-18.3-1.2l-104.7-119.4c-4.7-5.4-4.2-13.6,1.2-18.3l2.6-2.3,24.8-21.8,2.6-2.3c5.4-4.7,13.6-4.2,18.3,1.2l104.7,119.4c4.7,5.4,4.2,13.6-1.2,18.3Z"/>
  <line class="cls-3" x1="97.9" y1="481.7" x2="97.9" y2="543.2"/>
  <line class="cls-3" x1="4.5" y1="572.9" x2="66" y2="572.9"/>
  <line class="cls-3" x1="29.7" y1="506.8" x2="73.2" y2="550.3"/>
  <circle class="cls-5" cx="380.8" cy="917.7" r="16.1"/>
  <path class="cls-5" d="m380.8,885.2c-5.2,0-9.5-4.3-9.5-9.5v-10.1c0-11.6,7.2-22.1,18-26,10.4-3.8,13.7-14.5,13.7-18,0-24-15.1-25.8-20.1-26.5-22-2.7-29.3,14-30,15.9-1.8,4.9-7.3,7.4-12.2,5.5-4.9-1.8-7.4-7.3-5.6-12.3.3-.9,3.4-8.7,10.9-15.9,7.1-6.8,19.7-14.5,39.2-12.1,23,2.8,36.8,19.8,36.8,45.3s-7.1,28.9-26.1,35.8c-3.3,1.2-5.5,4.5-5.5,8.1v10.1c0,5.2-4.3,9.5-9.5,9.5Z"/>
  <path class="cls-3" d="m217.7,854.3c0-15.9,2.3-31.2,6.7-45.7"/>
  <path class="cls-3" d="m231.6,789.1c24.9-55.5,80.7-94.2,145.5-94.2"/>
  <path class="cls-4" d="m625.5,1127.2c-1.3,0-2.5-.5-3.4-1.6l-86.7-101.6c-1.6-1.9-1.4-4.7.5-6.3,1.9-1.6,4.7-1.4,6.3.5l86.7,101.6c1.6,1.9,1.4,4.7-.5,6.3-.8.7-1.9,1.1-2.9,1.1Z"/>
</svg>