<?xml version="1.0" encoding="UTF-8"?>
<svg id="Layer_1" data-name="Layer 1" xmlns="http://www.w3.org/2000/svg" viewBox="0 0 688.8 599.1">
  <defs>
    <style>
      .cls-1 {
        fill: #9ebfb6;
        stroke-width: 4px;
      }

      .cls-1, .cls-2, .cls-3 {
        stroke-miterlimit: 10;
      }

      .cls-1, .cls-3 {
        stroke: #6e9f91;
      }

      .cls-2 {
        stroke: #86afa3;
        stroke-linecap: round;
        stroke-width: 9px;
      }

      .cls-2, .cls-3 {
        fill: none;
      }

      .cls-3 {
        stroke-width: 13px;
      }

      .cls-4 {
        fill: #86afa3;
      }

      .cls-4, .cls-5, .cls-6 {
        stroke-width: 0px;
      }

      .cls-5 {
        fill: #6e9f91;
      }

      .cls-6 {
        fill: #3d7f6d;
      }
    </style>
  </defs>
  <path class="cls-5" d="m417.9,412.7l-24.8,21.8-26.5-30.3c9.1-6.3,17.5-13.4,25.2-21.3l26.2,29.9Z"/>
  <path class="cls-1" d="m267.9,88.9c-95.4,0-173.1,77.7-173.1,173.1s77.6,173.1,173.1,173.1,70.6-11.4,98.6-30.9c9.1-6.3,17.5-13.4,25.2-21.3,30.5-31.2,49.3-73.9,49.3-120.9,0-95.5-77.7-173.1-173.1-173.1Zm0,313.2c-77.2,0-140.1-62.8-140.1-140.1s62.8-140.1,140.1-140.1,140.1,62.9,140.1,140.1-62.8,140.1-140.1,140.1Z"/>
  <path class="cls-6" d="m542.3,549.4l-30.1,26.4c-5.4,4.7-13.6,4.2-18.3-1.2l-104.7-119.4c-4.7-5.4-4.2-13.6,1.2-18.3l2.6-2.3,24.8-21.8,2.6-2.3c5.4-4.7,13.6-4.2,18.3,1.2l104.7,119.4c4.7,5.4,4.2,13.6-1.2,18.3Z"/>
  <path class="cls-2" d="m108.5,262c0-15.9,2.3-31.2,6.7-45.7"/>
  <path class="cls-2" d="m122.4,196.8c24.9-55.5,80.7-94.2,145.5-94.2"/>
  <path class="cls-4" d="m516.3,534.9c-1.3,0-2.5-.5-3.4-1.6l-86.7-101.6c-1.6-1.9-1.4-4.7.5-6.3,1.9-1.6,4.7-1.4,6.3.5l86.7,101.6c1.6,1.9,1.4,4.7-.5,6.3-.8.7-1.9,1.1-2.9,1.1Z"/>
  <path class="cls-3" d="m366.5,220.5c0,20-16.2,36.3-36.3,36.3s-36.3-16.2-36.3-36.3"/>
  <path class="cls-3" d="m241.9,220.5c0,20-16.2,36.3-36.3,36.3s-36.3-16.2-36.3-36.3"/>
  <circle class="cls-3" cx="269.9" cy="314.4" r="19.1"/>
  <path class="cls-6" d="m56.4,162c-10.6,0-19.3-8.6-19.3-19.3s8.6-19.3,19.3-19.3,19.3,8.6,19.3,19.3-8.6,19.3-19.3,19.3Zm0-31.6c-6.8,0-12.3,5.5-12.3,12.3s5.5,12.3,12.3,12.3,12.3-5.5,12.3-12.3-5.5-12.3-12.3-12.3Z"/>
  <path class="cls-6" d="m386,599.1c-13.3,0-24.2-10.8-24.2-24.2s10.8-24.2,24.2-24.2,24.2,10.8,24.2,24.2-10.8,24.2-24.2,24.2Zm0-41.4c-9.5,0-17.2,7.7-17.2,17.2s7.7,17.2,17.2,17.2,17.2-7.7,17.2-17.2-7.7-17.2-17.2-17.2Z"/>
  <circle class="cls-5" cx="5" cy="215.5" r="5"/>
  <circle class="cls-5" cx="66.1" cy="37.6" r="8.4"/>
  <circle class="cls-5" cx="151.4" cy="77.9" r="3"/>
  <circle class="cls-5" cx="10.1" cy="77.9" r="5.5"/>
  <circle class="cls-5" cx="187" cy="5.4" r="5.4"/>
  <circle class="cls-5" cx="677.8" cy="525.8" r="11"/>
  <path class="cls-5" d="m64,286.2l12.2-2.7c1.2-.3,2,1.1,1.2,2l-8.2,9.3c-.3.3-.4.7-.3,1.1l3,12.8c.3,1.2-1.1,2-2,1.2l-10.2-8.8c-.3-.3-.7-.4-1.2-.3l-12.1,3.4c-1.1.3-2-1-1.3-1.9l7.9-10.7c.2-.3.3-.6.2-1l-2.4-11.8c-.2-1.1,1.1-2,2-1.2l10.1,8.2c.3.2.7.3,1.1.2Z"/>
  <path class="cls-5" d="m270,16.9l12.2-2.7c1.2-.3,2,1.1,1.2,2l-8.2,9.3c-.3.3-.4.7-.3,1.1l3,12.8c.3,1.2-1.1,2-2,1.2l-10.2-8.8c-.3-.3-.7-.4-1.2-.3l-12.1,3.4c-1.1.3-2-1-1.3-1.9l7.9-10.7c.2-.3.3-.6.2-1l-2.4-11.8c-.2-1.1,1.1-2,2-1.2l10.1,8.2c.3.2.7.3,1.1.2Z"/>
  <path class="cls-5" d="m611.5,431.6l16-3.6c1.5-.3,2.6,1.5,1.6,2.7l-10.7,12.2c-.3.4-.5.9-.4,1.5l3.9,16.8c.4,1.5-1.5,2.6-2.7,1.6l-13.3-11.5c-.4-.4-1-.5-1.5-.3l-15.8,4.5c-1.5.4-2.7-1.3-1.8-2.5l10.3-14c.3-.4.4-.8.3-1.3l-3.2-15.5c-.3-1.5,1.4-2.6,2.6-1.6l13.3,10.8c.4.3.9.4,1.4.3Z"/>
</svg>